<svg id="monogram" xmlns="http://www.w3.org/2000/svg" viewBox="0 0 34.34 34.37"><defs><style>.cls-1{fill:#fff;}</style></defs><title>monogram</title><path class="cls-1" d="M24.61,42.45A17.66,17.66,0,0,1,22,42.26,17.19,17.19,0,1,1,41.6,22.72l.07.46-.45.09H37.35l-.06-.32A12.9,12.9,0,0,0,24.61,12.38a13.34,13.34,0,0,0-1.71.11,12.89,12.89,0,0,0,1.71,25.66q.64,0,1.29-.06a13.15,13.15,0,0,0,10.63-7.92l.05-.12H30.32L24.56,19.38,18.94,30.06H14.13l8.5-15.26h3.94l6.22,11.12h9l0,.43a18.1,18.1,0,0,1-5.38,11.46A17.12,17.12,0,0,1,24.61,42.45Z" transform="translate(-7.42 -8.08)"/></svg>